<?xml version="1.0" encoding="utf-8"?>
<!-- Generator: Adobe Illustrator 21.0.0, SVG Export Plug-In . SVG Version: 6.00 Build 0)  -->
<svg version="1.1" id="レイヤー_1" xmlns="http://www.w3.org/2000/svg" xmlns:xlink="http://www.w3.org/1999/xlink" x="0px"
	 y="0px" width="23.1px" height="22.6px" viewBox="0 0 23.1 22.6" enable-background="new 0 0 23.1 22.6" xml:space="preserve">
<g>
	<path fill="#151618" d="M5.9,10.9c0.1-0.3-0.1-0.5-0.4-0.6c-0.3-0.1-0.5,0.1-0.6,0.4c-0.1,0.3,0.1,0.5,0.4,0.6
		C5.6,11.3,5.9,11.1,5.9,10.9"/>
	<path fill="#151618" d="M15.4,6.9L15.4,6.9L15.4,6.9l0,0.2l0,0.1c0,0.1,0,0.2,0,0.2c-0.1,0.5-0.5,1-0.9,1.3
		c-0.4,0.3-0.9,0.5-1.3,0.5c-0.1,0-0.1,0-0.2,0l-0.1,0c-0.1,0-0.1,0-0.2,0c-0.1,0-0.1,0-0.2,0c-0.2-0.1-0.4-0.2-0.6-0.3
		c-0.3-0.3-0.5-0.6-0.6-0.9c-0.1-0.3-0.1-0.6,0-0.8c0.1-0.2,0.2-0.4,0.3-0.5c0.1-0.1,0.1-0.1,0.1-0.1l0,0c0.2-0.1,0.4-0.1,0.5,0.1
		c0.1,0.1,0.1,0.3,0,0.5c0,0,0,0,0,0.1c0,0-0.1,0.1-0.1,0.2c0,0.1,0,0.2,0.1,0.4c0.1,0.1,0.2,0.3,0.3,0.4C12.6,8,12.7,8,12.8,8
		c0,0,0,0,0.1,0c0,0,0,0,0,0L13,8c0,0-0.1,0,0,0l0,0l0,0l0,0l0,0l0,0c0.2,0,0.4-0.1,0.6-0.3C13.8,7.6,14,7.3,14,7.1
		c0-0.2,0-0.5-0.1-0.7c-0.1-0.2-0.3-0.4-0.5-0.6c-0.2-0.2-0.4-0.2-0.7-0.3c-0.1,0-0.1,0-0.1,0l-0.1,0h-0.1h0c0,0,0.1,0,0,0l0,0l0,0
		l0,0c-0.1,0-0.2,0-0.4,0.1c-0.2,0.1-0.4,0.1-0.6,0.3c-0.3,0.2-0.6,0.5-0.7,0.7c0,0,0,0,0,0.1c0,0,0,0,0,0c0,0,0,0,0,0
		c0,0,0,0,0,0.1c0,0.1-0.1,0.1-0.1,0.1c-0.2,0.5-0.8,0.7-1.4,0.5C8.7,7.1,8.5,6.5,8.7,5.9c0,0,0,0,0-0.1c0,0,0,0,0.1-0.1
		c0,0,0,0,0-0.1c0,0,0-0.1,0.1-0.1C9,5.5,9,5.5,9,5.4c0,0,0.1-0.1,0.1-0.1c0.3-0.4,0.7-0.8,1.4-1.2c0.3-0.2,0.7-0.3,1.2-0.4
		c0.2,0,0.4,0,0.7,0l0.1,0l0,0l0.1,0l0.1,0c0.1,0,0.3,0,0.4,0.1c0.5,0.1,1,0.4,1.3,0.7c0.4,0.4,0.7,0.8,0.8,1.3
		c0.1,0.2,0.1,0.5,0.1,0.8l0,0.2L15.4,6.9L15.4,6.9z M23.1,11.4c0-0.9-0.4-1.6-1.1-2.1C22.2,9,22.4,8.5,22.4,8c0-1.2-0.9-2.2-2-2.4
		c0-0.2,0-0.3,0-0.5c0-1.4-1.1-2.5-2.5-2.5c-0.2,0-0.3,0-0.5,0c-0.2-1.1-1.2-2-2.4-2c-0.5,0-1,0.2-1.4,0.4C13.3,0.4,12.5,0,11.7,0
		c-0.9,0-1.6,0.4-2.1,1.1C9.2,0.8,8.8,0.7,8.2,0.7C7,0.7,6,1.5,5.8,2.7c-0.2,0-0.3,0-0.5,0C4,2.6,2.9,3.7,2.9,5.1c0,0.8,0.4,1.5,1,2
		C4,7.2,4.2,7.3,4.4,7.4c0,0,0,0,0,0c0.1,0,0.1,0,0.2,0.1c0,0,0,0,0,0c0.1,0,0.1,0,0.2,0.1c0,0,0,0,0.1,0c0,0,0.1,0,0.1,0
		c0,0,0.1,0,0.1,0c0,0,0.1,0,0.1,0c0.1,0,0.1,0,0.2,0C6,7.6,6.6,7.3,7,6.9c0.6,1.2,0.8,2.7,0.3,3.9c-0.7,1.8-2.4,3.1-4.2,3.2
		c-0.1,0-0.2,0-0.3,0c-0.2,0-0.3,0-0.4,0c-0.4-0.1-0.6-0.3-0.5-1.1c0,0,0,0,0.1,0c0.2,0,0.6,0.1,1,0.1c0.2,0,0.3-0.2,0.3-0.3
		c0-0.2-0.2-0.3-0.3-0.3C2.4,12.5,2,12.3,2,12.3c0,0-0.1,0-0.1,0c0.2-1.1,0.5-2.2,1-3.4c-0.1,0-0.3,0-0.4,0C1.1,8.9,0,10,0,11.4
		c0,0.9,0.4,1.6,1.1,2.1c-0.3,0.4-0.4,0.9-0.4,1.4c0,1.2,0.9,2.2,2,2.4c0,0.2,0,0.3,0,0.5c0,1.4,1.1,2.5,2.5,2.5
		c0.5,0,1-0.2,1.4-0.4l1,2.9h1.3l0.8-2.5c0.7,0.2,1.4,0.3,2.1,0.3c0.7,0,1.4-0.1,2.1-0.3l0.8,2.5h1.3l0.9-2.7
		c0.4,0.2,0.8,0.3,1.2,0.3c1.4,0,2.5-1.1,2.5-2.5c0-0.2,0-0.3,0-0.5c1.1-0.2,2-1.2,2-2.4c0-0.5-0.2-1-0.4-1.4
		C22.6,13,23.1,12.3,23.1,11.4"/>
</g>
</svg>
