<svg class="svgicon" data-name="レイヤー 1" xmlns="http://www.w3.org/2000/svg" width="61.3" height="43.1" viewBox="0 0 61.3 43.1">
	<defs><style>.cls-1{fill:#022169;}</style></defs>
	<title>icon-koko-dad</title>
	<path class="cls-1" d="M17,30.4a.7.7,0,0,1-1.3.3.7.7,0,0,1,1.3-.3"/><path class="cls-1" d="M26.9,20.3a.9.9,0,0,0,1.8.4.9.9,0,0,0-1.8-.4"/><path class="cls-1" d="M46.7,13.2a4.6,4.6,0,0,1-2,3.5,3.8,3.8,0,0,1-5.1-.6,3.2,3.2,0,0,1-.5-2.9c.2-.5.7-1.5,1.4-1.2s0,1.3,0,2a1.5,1.5,0,0,0,1.7,1.3h0A2.1,2.1,0,0,0,44,12.8a2.9,2.9,0,0,0-3-2.4H41A4.1,4.1,0,0,0,38,12.1c-.5.8-.7,1.7-1.8,1.9a2,2,0,0,1-2.3-2.2,5.5,5.5,0,0,1,1.7-2.6,7.4,7.4,0,0,1,6.8-2A5.9,5.9,0,0,1,46.7,13.2ZM20.5,35c-2.3.5-4.8-1.1-6.1-3a6.6,6.6,0,0,1-.2-6.7c.4-.7,1.3-2.1,2.1-2.2s1.7,1.6,2.1,2.2a20.5,20.5,0,0,1,2.7,7.4c-.4,0-1.7-.1-1.8.4s1.5.4,1.9.4,0,1.3-.7,1.4M10.3,24.6a2.9,2.9,0,0,1-1.7-2.5c0-1.3,1.8-.5,2.5-.2s2.9,1,2.5,1.9-2.5,1.2-3.4.8m51-3a4.7,4.7,0,0,0-1.2-3.2l-.6-.6c-.2-.4-.2-.2.1-.7a4.7,4.7,0,0,0-1.8-6.1c-.4-.2-1.3-.4-1.5-.7s.1-1.2,0-1.6a4.7,4.7,0,0,0-.5-1.5,4.8,4.8,0,0,0-2.5-2.1L51.6,5h-.9a4.4,4.4,0,0,1-.2-.8,4.7,4.7,0,0,0-5.3-2.9l-.9.3-.8.4L43,1.4,42.1.7a4.7,4.7,0,0,0-5,0l-.7.5c-.1.1-.6.8-.7.9l-1.4-.6a4.7,4.7,0,0,0-5.6,2.8,4.4,4.4,0,0,1-.2.8h-.9a4.7,4.7,0,1,0,3.2,8.2,9.1,9.1,0,0,1-2,11.2c-1.6,1.4-8.1,4.5-7.8.2.6.1,2.7.6,2.6-.5s-.9-.5-1.3-.5H21.1a24.3,24.3,0,0,1,.8-3.5l.6-1.8a10.4,10.4,0,0,0,.8-1.9c.1-.7-1-1.5-1.6-1.8l-1.3-.3c-.6,0-1.2.4-1.7.5s-.7-.6-1-.8l-1.1-.5a3.4,3.4,0,0,0-2.9.6c-.3.2-.6.7-.9.7s-.9-.4-1.4-.5a3.4,3.4,0,0,0-3.5,2.2l-.2.5H6.8a3.4,3.4,0,0,0-3.1,2.3,12.9,12.9,0,0,0-.2,1.4c-.1.4.2.1-.2.4l-.6.3A3.4,3.4,0,0,0,1,24.9l.2.6c.2.5.3.4.1.7s-.6.6-.9,1a3.4,3.4,0,0,0,.5,3.9l.4.4q.4.1.1.4v.3a3.4,3.4,0,0,0,1.4,4.2l.7.3h.3a3.4,3.4,0,0,0,4.3,3.9,9.8,9.8,0,0,0,.4,1.9c.1.2,0,.2.2.3s.8,0,1,0,.9.2,1.2-.3.4-1.5.9-2,.5-.1.9.1l2.3.4h2.4l1.1-.2c.2,0,1-.4,1.2-.3s.6,1.4.7,1.7.2.7.7.8,1.6.2,1.9-.1.4-1.6.5-2.1a3.4,3.4,0,0,0,3.5-1c.3-.3.5-1.2.8-1.4s.8-.1,1-.1l1.2-.5,1,2.9c.2.5.4,2.1.8,2.3a4.4,4.4,0,0,0,2.5-.1,5.1,5.1,0,0,0,.4-1.4l.6-2c.1-.2.2-1,.4-1.2s.9.2,1.1.2l2.2.2a17,17,0,0,0,3.7-.2c.9-.2,1-.5,1.2.3l1.1,3.6c.1.2.1.5.3.6A5.8,5.8,0,0,0,47,43c.5,0,.5.1.7-.3a9.6,9.6,0,0,0,.6-1.8l1.1-3.2a4.7,4.7,0,0,0,7-3.4,11,11,0,0,1,0-1.6,10,10,0,0,1,1.4-.5,4.8,4.8,0,0,0,2.3-5c-.1-.5-.4-.9-.5-1.4s-.2-.3.1-.4l.2-.2.6-.6a4.7,4.7,0,0,0,1-3"/>
</svg>