<?xml version="1.0" encoding="utf-8"?>
<!-- Generator: Adobe Illustrator 21.0.0, SVG Export Plug-In . SVG Version: 6.00 Build 0)  -->
<svg version="1.1" id="レイヤー_1" xmlns="http://www.w3.org/2000/svg" xmlns:xlink="http://www.w3.org/1999/xlink" x="0px"
	 y="0px" width="162.331px" height="43.111px" viewBox="0 0 162.331 43.111" enable-background="new 0 0 162.331 43.111"
	 xml:space="preserve">
<path fill="#022169" d="M69.566,30.281c0-5.897,0-11.794,0-17.692c0-0.557-0.205-1.626,0.109-2.139
	c0.439-0.715,1.946-0.553,2.683-0.499c0.758,0.056,1.31,0.261,1.365,1.051c0.22,3.161,0,6.412,0,9.581c0,0.224-0.143,1.129,0,1.309
	c0.169,0.212,0.316-0.203,0.452-0.407c0.939-1.405,1.865-2.819,2.816-4.215c0.455-0.668,0.95-0.854,1.796-0.892
	c0.599-0.027,2.236-0.244,2.647,0.217c0.467,0.522-1.613,2.879-1.908,3.299c-0.526,0.749-1.052,1.498-1.578,2.248
	c-0.135,0.192-0.53,0.587-0.526,0.812c0.006,0.321,0.631,0.998,0.797,1.261c0.491,0.777,0.982,1.553,1.472,2.33
	c0.749,1.186,1.582,2.351,2.261,3.578c0.607,1.096-0.463,1.044-1.348,1.056c-0.757,0.01-1.91,0.171-2.565-0.254
	c-0.366-0.238-0.563-0.712-0.783-1.076c-0.439-0.726-0.878-1.453-1.317-2.179c-0.479-0.793-0.958-1.586-1.437-2.378
	c-0.072-0.12-0.538-1.103-0.669-1.107c-0.223-0.006-0.113,3.568-0.113,3.941c0,0.671,0.072,1.386,0,2.054
	c-0.099,0.926-0.935,0.983-1.743,1C71.262,31.194,69.566,31.352,69.566,30.281"/>
<path fill="#022169" d="M87.741,23.778c0,1.742,0.361,4.285,2.598,4.285c2.237,0,2.6-2.541,2.6-4.285c0-1.743-0.363-4.283-2.6-4.283
	C88.102,19.494,87.741,22.036,87.741,23.778 M85.269,29.396c-2.034-2.278-2.184-6.233-1.264-9.01c1.026-3.097,3.9-4.348,7.002-4.159
	c3.164,0.192,5.372,2.17,5.954,5.277c0.538,2.876,0.219,6.682-2.291,8.596C92.108,32.05,87.45,31.841,85.269,29.396"/>
<path fill="#022169" d="M100.185,30.281c0-5.897,0-11.794,0-17.692c0-0.557-0.205-1.626,0.109-2.139
	c0.439-0.715,1.946-0.553,2.683-0.499c0.758,0.056,1.31,0.261,1.365,1.051c0.22,3.161,0,6.412,0,9.581c0,0.224-0.143,1.129,0,1.309
	c0.169,0.212,0.316-0.203,0.452-0.407c0.939-1.405,1.865-2.819,2.816-4.215c0.455-0.668,0.95-0.854,1.796-0.892
	c0.599-0.027,2.236-0.244,2.647,0.217c0.467,0.522-1.613,2.879-1.908,3.299c-0.526,0.749-1.052,1.498-1.578,2.248
	c-0.135,0.192-0.53,0.587-0.526,0.812c0.006,0.321,0.631,0.998,0.797,1.261c0.491,0.777,0.982,1.553,1.472,2.33
	c0.749,1.186,1.582,2.351,2.261,3.578c0.607,1.096-0.463,1.044-1.348,1.056c-0.757,0.01-1.909,0.171-2.565-0.254
	c-0.367-0.238-0.563-0.712-0.783-1.076c-0.439-0.726-0.878-1.453-1.317-2.179c-0.479-0.793-0.958-1.586-1.437-2.378
	c-0.072-0.12-0.538-1.103-0.669-1.107c-0.223-0.006-0.113,3.568-0.113,3.941c0,0.671,0.072,1.386,0,2.054
	c-0.099,0.926-0.935,0.983-1.743,1C101.882,31.194,100.185,31.352,100.185,30.281"/>
<path fill="#022169" d="M118.36,23.778c0,1.742,0.361,4.285,2.598,4.285c2.237,0,2.6-2.541,2.6-4.285c0-1.743-0.363-4.283-2.6-4.283
	C118.721,19.494,118.36,22.036,118.36,23.778 M115.888,29.396c-2.034-2.277-2.182-6.234-1.264-9.01
	c1.025-3.098,3.899-4.348,7.001-4.159c3.164,0.192,5.372,2.17,5.954,5.277c0.538,2.876,0.219,6.682-2.291,8.596
	C122.727,32.05,118.069,31.841,115.888,29.396"/>
<path fill="#022169" d="M136.283,28.062c0.304-0.045,0.692-0.195,0.966-0.03c0.443,0.267,0.685,1.448,0.663,1.939
	c-0.054,1.233-1.59,1.359-2.535,1.375c-2.787,0.046-4.196-1.721-4.261-4.404c-0.036-1.487-0.002-2.978-0.002-4.465
	c0-0.768,0.072-1.574,0-2.339c-0.007-0.072,0.051-0.362,0-0.42c-0.157-0.181-0.765,0.041-1.033-0.277
	c-0.456-0.542-0.452-2.492,0.182-2.896c0.201-0.128,0.734-0.013,0.853-0.13c0.129-0.127,0.118-0.861,0.141-1.033
	c0.085-0.619,0.026-1.716,0.521-2.179c0.527-0.493,2.207-0.488,2.868-0.238c0.847,0.319,0.624,1.303,0.624,2.038
	c0,0.318-0.118,0.934,0,1.23c0.114,0.284,0.068,0.201,0.504,0.201c1.118,0,1.668,0.087,1.715,1.404
	c0.031,0.89,0.013,1.807-1.028,1.882c-0.2,0.014-1.052-0.133-1.19,0.004c-0.052,0.051,0,0.46,0,0.525c0,0.98,0,1.96,0,2.941
	C135.271,24.165,134.688,28.062,136.283,28.062"/>
<path fill="#022169" d="M148.586,22.331c0-1.501-0.694-3.117-2.464-2.802c-1.359,0.242-1.892,1.578-2.086,2.802
	C145.553,22.331,147.07,22.331,148.586,22.331z M141.549,29.368c-2.062-2.255-2.269-6.194-1.357-8.981
	c0.993-3.037,3.922-4.381,6.976-4.157c3.343,0.245,5.1,2.867,5.407,6.025c0.105,1.077-0.101,2.578-1.423,2.857
	c-0.55,0.116-1.251,0-1.811,0c-1.769,0-3.537,0-5.306,0c0.217,2.486,2.161,3.282,4.441,2.807c0.649-0.135,1.545-0.767,2.188-0.729
	c0.752,0.043,1.532,1.552,1.452,2.226c-0.211,1.777-4.09,1.958-5.382,1.927C144.848,31.299,142.866,30.808,141.549,29.368"/>
<path fill="#022169" d="M160.638,28.062c0.366-0.054,0.714-0.193,1.032,0.02c0.415,0.276,0.642,1.489,0.592,1.973
	c-0.134,1.302-1.98,1.329-2.953,1.289c-2.695-0.11-3.807-2.066-3.84-4.576c-0.042-3.242,0-6.487,0-9.73c0-1.742,0-3.485,0-5.227
	c0-0.306-0.048-0.657,0-0.961c0.17-1.074,1.567-0.926,2.412-0.908c0.789,0.017,1.639,0.07,1.745,0.98c0.05,0.426,0,0.888,0,1.316
	c0,1.841,0,3.681,0,5.522c0,2.234,0,4.469,0,6.703C159.627,25.392,159.206,28.062,160.638,28.062"/>
<path fill="#022169" d="M71.893,40.134c1.879,0,1.878-2.914,0-2.917C70.011,37.214,70.011,40.134,71.893,40.134 M70.434,36.864
	c2.343-1.953,5.286,1.823,2.868,3.667c-0.97,0.74-2.359,0.58-3.159-0.326c-0.522-0.591-0.572-1.26-0.578-1.999
	c-0.005-0.683,0-1.367,0-2.051c0-0.399-0.114-0.984,0-1.37c0.245-0.826,0.849-0.282,0.869,0.325
	C70.453,35.693,70.434,36.28,70.434,36.864z"/>
<path fill="#022169" d="M79.124,38.243c-0.412-1.32-2.408-1.353-2.801,0C77.257,38.243,78.19,38.243,79.124,38.243z M78.937,39.694
	c0.335,0,0.48,0.314,0.401,0.602c-0.088,0.319-0.647,0.521-0.926,0.605c-0.931,0.28-1.949-0.041-2.544-0.814
	c-1.373-1.785,0.484-4.333,2.603-3.616c1.036,0.35,2.522,2.606,0.732,2.637c-0.96,0.017-1.922,0-2.882,0
	c0.153,0.489,0.556,0.857,1.051,0.98C78.09,40.266,78.325,39.713,78.937,39.694"/>
<path fill="#022169" d="M85.014,38.676c0-1.88-2.92-1.883-2.919,0C82.097,40.559,85.014,40.555,85.014,38.676 M83.555,36.348
	c0.53,0,1.047,0.178,1.459,0.512c0-0.557-0.014-1.115,0-1.672c0.01-0.413,0.269-1.3,0.789-0.643c0.206,0.261,0.08,0.952,0.08,1.249
	c0,0.681,0,1.361,0,2.042c0,0.472,0.047,0.994-0.076,1.455c-0.297,1.115-1.431,1.841-2.566,1.693
	C80.445,40.619,80.739,36.348,83.555,36.348"/>
<path fill="#022169" d="M89.866,36.818c0.192-0.152,0.472-0.312,0.598-0.526c0.26-0.442,0.055-1.065-0.534-1.066
	C88.758,35.225,89.461,36.408,89.866,36.818z M91.114,39.311c-0.33-0.33-0.659-0.661-0.989-0.991
	c-0.39-0.391-0.538-0.344-0.923,0.132c-0.445,0.549-0.29,1.398,0.434,1.623C90.313,40.285,90.714,39.746,91.114,39.311z
	 M90.486,37.433c0.41,0.414,0.82,0.829,1.23,1.243c0.237-0.254,1.322-1.441,1.384-0.358c0.017,0.298-0.348,0.498-0.495,0.705
	c-0.271,0.383-0.246,0.12-0.088,0.455c0.145,0.307,1.514,1.117,0.632,1.492c-0.496,0.211-1.123-0.731-1.412-1.023
	c-0.819,0.867-1.966,1.543-3.044,0.583c-1.157-1.03-0.57-2.38,0.475-3.165c-0.379-0.377-0.734-0.729-0.789-1.3
	c-0.086-0.892,0.642-1.72,1.55-1.722c0.835-0.002,1.565,0.733,1.562,1.567C91.49,36.588,91.01,37.078,90.486,37.433z"/>
<path fill="#022169" d="M99.139,39.686c0.292,0,0.457,0.253,0.415,0.518c-0.053,0.327-0.541,0.554-0.821,0.658
	c-0.906,0.338-1.933,0.06-2.566-0.657c-1.392-1.574-0.035-4.086,2.036-3.841c0.418,0.05,1.865,0.561,1.259,1.19
	c-0.306,0.317-0.632-0.083-0.924-0.189c-0.398-0.145-0.784-0.204-1.19-0.034c-0.888,0.373-1.166,1.534-0.554,2.27
	c0.276,0.332,0.688,0.532,1.124,0.533C98.396,40.135,98.71,39.7,99.139,39.686"/>
<path fill="#022169" d="M103.091,37.217c-1.88,0-1.88,2.919,0,2.917C104.972,40.133,104.972,37.217,103.091,37.217 M104.55,40.571
	c-0.048-0.031-1.254,0.447-1.616,0.422c-0.825-0.056-1.566-0.546-1.934-1.291c-0.844-1.712,0.698-3.674,2.55-3.307
	c1.505,0.298,1.868,1.625,1.868,2.947c0,0.354,0.097,0.863,0,1.205C105.289,41.004,104.55,41.227,104.55,40.571"/>
<path fill="#022169" d="M109.176,35.226c-0.598,0-1.048,0.289-1.133,0.904c-0.088,0.639,0.15,0.391,0.655,0.456
	c0.358,0.046,0.883,0.31,0.471,0.741c-0.277,0.29-0.874-0.08-1.094,0.128c-0.224,0.212-0.046,1.603-0.046,1.944
	c0,0.279,0.12,2.272-0.74,1.478c-0.389-0.36-0.126-1.794-0.126-2.25c0-0.222,0.114-0.832,0-1.038
	c-0.12-0.218-0.46-0.066-0.601-0.399c-0.23-0.545,0.466-0.532,0.601-0.711c0.097-0.128,0.029-0.647,0.08-0.832
	c0.072-0.261,0.176-0.51,0.358-0.716c0.327-0.37,1.072-0.699,1.574-0.572C109.66,34.48,109.791,35.226,109.176,35.226"/>
<path fill="#022169" d="M113.656,35.097c-0.244,0.243-0.518,0.655-0.817,0.814c-0.477,0.254-0.915-0.071-0.638-0.598
	c0.121-0.23,0.579-0.669,0.803-0.798C113.414,34.279,114.127,34.626,113.656,35.097 M114.159,38.243c-0.4-1.33-2.411-1.344-2.801,0
	C112.291,38.243,113.225,38.243,114.159,38.243z M113.972,39.694c0.335,0,0.48,0.314,0.401,0.602
	c-0.088,0.319-0.647,0.521-0.926,0.605c-0.93,0.28-1.95-0.041-2.543-0.814c-1.371-1.785,0.484-4.333,2.603-3.616
	c1.036,0.35,2.522,2.606,0.732,2.637c-0.96,0.017-1.922,0-2.882,0c0.153,0.489,0.556,0.857,1.051,0.98
	C113.125,40.266,113.36,39.713,113.972,39.694"/>
<path fill="#022169" d="M122.972,37.193c-1.929,0-1.928,2.98,0,2.976C124.891,40.165,124.892,37.193,122.972,37.193 M125.554,41.386
	c-0.566,0-0.993-0.277-1.072-0.861c-1.782,1.44-4.431-0.304-3.798-2.511c0.609-2.124,3.646-2.277,4.491-0.246
	c0.238,0.571,0.179,1.207,0.179,1.813c0,0.477,0.019,1.384,0.704,0.675c0.55-0.569,0.404-1.914,0.202-2.594
	c-0.381-1.285-1.608-2.277-2.936-2.399c-2.369-0.218-4.282,2.005-3.673,4.32c0.252,0.961,0.97,1.797,1.867,2.219
	c0.544,0.256,1.156,0.35,1.753,0.3c0.393-0.032,1.173-0.469,1.494-0.305c1.187,0.602-1.261,1.184-1.636,1.197
	c-1.215,0.043-2.354-0.403-3.212-1.263c-1.668-1.67-1.667-4.432,0-6.103c1.936-1.941,5.213-1.555,6.699,0.732
	C127.443,37.632,127.92,41.386,125.554,41.386"/>
<path fill="#022169" d="M156.488,41.615c-1.366-0.096-0.463-6.284,0.638-5.985c0.528,0.144,0.331,0.65,0.237,1.012
	c-0.189,0.732-0.36,1.452-0.427,2.208C156.884,39.435,157.34,41.572,156.488,41.615z"/>
<path fill="#022169" d="M148.65,41.585c-0.33,0-0.562-0.346-0.479-0.659c0.103-0.386,0.562-0.419,0.863-0.572
	c0.628-0.319,1.185-0.88,1.338-1.588c0.039-0.182,0.051-0.366,0.036-0.552c0.053-0.327-0.09-0.419-0.429-0.276
	c-0.415-0.1-1.059,0.053-1.487,0.082c-0.387,0.027-1.655,0.152-1.18-0.722c0.304-0.56,1.979-0.377,2.53-0.402
	c0.941-0.043,1.884-0.064,2.826-0.071c0.417-0.003,1.861,0.06,1.131,0.898c-0.362,0.415-1.893,0.156-2.415,0.168
	C151.599,39.359,150.352,41.585,148.65,41.585"/>
<path fill="#022169" d="M159.385,41.346c-2.482,0-1.333-4.863-0.667-6.058c0.254-0.457,0.91-0.738,1.019,0.025
	c0.061,0.425-0.369,1.136-0.48,1.555c-0.164,0.618-0.26,1.243-0.307,1.88c-0.04,0.541-0.234,1.618,0.594,1.494
	c1.035-0.155,1.368-1.722,1.776-2.425c0.219-0.377,0.742-0.661,0.977-0.053c0.146,0.378-0.196,1.013-0.361,1.336
	C161.474,40,160.529,41.346,159.385,41.346"/>
<path fill="#022169" d="M135.602,41.102c-0.713,0-1.427-0.001-2.14,0.015c-0.628,0.013-1.578,0.236-2.187,0.101
	c-0.444-0.098-0.799-0.573-0.314-0.958c0.374-0.297,1.352-0.147,1.813-0.163c0.714-0.025,1.592,0.117,2.29-0.034
	c0.365,0.122,0.496-0.005,0.394-0.38c0.011-0.175,0.019-0.351,0.024-0.526c0.013-0.373,0.01-0.744-0.002-1.118
	c-0.012-0.369,0.033-0.97-0.201-1.284c-0.37-0.496-1.246-0.491-1.794-0.464c-0.755,0.037-1.348,0.397-2.045,0.525
	c-0.648,0.119-1.037-0.41-0.473-0.923c0.883-0.802,3.093-0.871,4.136-0.479c1.212,0.455,1.376,1.695,1.397,2.85
	C136.505,38.677,136.572,41.936,135.602,41.102"/>
<path fill="#022169" d="M144.105,41.102c-0.713,0-1.427-0.001-2.14,0.015c-0.628,0.013-1.578,0.236-2.187,0.101
	c-0.444-0.098-0.799-0.573-0.314-0.958c0.374-0.297,1.351-0.147,1.812-0.163c0.714-0.025,1.592,0.117,2.29-0.034
	c0.365,0.122,0.496-0.005,0.394-0.38c0.011-0.175,0.019-0.351,0.024-0.526c0.013-0.373,0.01-0.744-0.002-1.118
	c-0.012-0.369,0.033-0.97-0.201-1.284c-0.37-0.496-1.246-0.491-1.794-0.464c-0.755,0.037-1.348,0.397-2.045,0.525
	c-0.648,0.119-1.037-0.41-0.473-0.923c0.883-0.802,3.093-0.871,4.136-0.479c1.212,0.455,1.376,1.695,1.396,2.85
	C145.008,38.677,145.077,41.937,144.105,41.102"/>
<path fill="#022169" d="M148.295,35.451c-0.64,0-0.507-0.765-0.139-0.997c0.403-0.255,1.365-0.167,1.835-0.185
	c0.638-0.024,2.758-0.364,3.157,0.223c0.632,0.929-1.054,0.812-1.52,0.81C150.509,35.299,149.406,35.327,148.295,35.451z"/>
<path fill="#022169" d="M16.959,30.394c0.187,0.829-1.096,1.122-1.284,0.293C15.486,29.859,16.772,29.566,16.959,30.394"/>
<path fill="#022169" d="M26.949,20.26c-0.263,1.148,1.521,1.553,1.783,0.407C28.995,19.523,27.214,19.105,26.949,20.26"/>
<path fill="#022169" d="M46.729,13.16c-0.129,1.427-0.811,2.747-2.033,3.541c-1.619,1.051-3.922,0.963-5.149-0.646
	c-0.614-0.806-0.855-1.927-0.518-2.896c0.189-0.544,0.719-1.465,1.434-1.161c0.932,0.397-0.041,1.335,0.049,1.991
	c0.112,0.812,0.866,1.375,1.668,1.306c-0.016,0.001-0.032-0.001-0.047-0.003c1.247-0.169,2.076-1.213,1.871-2.462
	c-0.249-1.517-1.561-2.426-3.041-2.398c0.026,0.001,0.052,0.002,0.079,0.002c-1.217,0.091-2.348,0.696-3.058,1.696
	c-0.54,0.76-0.747,1.668-1.794,1.898c-1.325,0.292-2.564-0.89-2.33-2.228c0.168-0.961,0.99-1.911,1.661-2.575
	c1.746-1.724,4.435-2.605,6.844-1.971C45.066,7.968,46.763,10.417,46.729,13.16z M20.504,34.951
	c-2.302,0.517-4.839-1.129-6.058-2.967c-1.333-2.01-1.351-4.623-0.219-6.733c0.37-0.69,1.255-2.098,2.135-2.182
	c0.921-0.088,1.729,1.597,2.114,2.246c1.326,2.238,2.309,4.806,2.683,7.386c-0.404,0-1.699-0.058-1.76,0.448
	c-0.095,0.786,1.456,0.442,1.854,0.362C21.3,34.155,21.213,34.788,20.504,34.951 M10.257,24.645
	c-0.959-0.406-1.691-1.478-1.687-2.528c0.005-1.267,1.768-0.491,2.502-0.22c0.629,0.233,2.856,1.028,2.538,1.923
	C13.2,24.971,11.137,25.019,10.257,24.645 M61.296,21.689c0-1.164-0.438-2.302-1.22-3.165c-0.168-0.185-0.491-0.371-0.622-0.573
	c-0.239-0.369-0.158-0.226,0.067-0.683c0.317-0.644,0.482-1.358,0.483-2.076c0-1.089-0.383-2.159-1.077-2.999
	c-0.337-0.408-0.742-0.758-1.194-1.032c-0.408-0.247-1.327-0.431-1.472-0.731c-0.144-0.299,0.061-1.172-0.008-1.562
	c-0.091-0.521-0.271-1.025-0.53-1.486c-0.553-0.985-1.46-1.754-2.524-2.135c-0.509-0.182-1.049-0.276-1.59-0.275
	c-0.124,0-0.814,0.14-0.89,0.087c-0.081-0.057-0.185-0.664-0.231-0.779c-0.422-1.073-1.243-1.971-2.274-2.489
	c-0.935-0.469-2.02-0.613-3.046-0.406c-0.298,0.06-0.59,0.149-0.87,0.266c-0.117,0.049-0.696,0.44-0.79,0.42
	c-0.098-0.021-0.447-0.564-0.536-0.655c-0.264-0.269-0.559-0.507-0.879-0.706c-1.001-0.623-2.222-0.847-3.38-0.626
	c-0.565,0.108-1.109,0.321-1.598,0.626c-0.24,0.149-0.466,0.321-0.676,0.511c-0.147,0.133-0.589,0.819-0.739,0.851
	c-0.143,0.031-1.153-0.559-1.362-0.616c-0.582-0.158-1.194-0.201-1.792-0.13c-1.159,0.138-2.241,0.715-3.004,1.597
	c-0.348,0.402-0.628,0.863-0.822,1.357c-0.045,0.115-0.15,0.722-0.231,0.779c-0.076,0.053-0.765-0.086-0.888-0.087
	c-1.154-0.002-2.286,0.433-3.145,1.203c-1.913,1.715-2.082,4.753-0.353,6.664c1.728,1.909,4.747,2.073,6.662,0.333
	c1.993,3.779,1.228,8.352-1.978,11.191c-1.561,1.382-8.122,4.465-7.801,0.224c0.59,0.136,2.705,0.577,2.574-0.502
	c-0.083-0.681-0.895-0.458-1.341-0.476c-0.373-0.015-0.735-0.136-1.103-0.148c0.172-1.176,0.445-2.337,0.787-3.475
	c0.179-0.595,0.375-1.185,0.589-1.768c0.216-0.591,0.7-1.317,0.774-1.923c0.091-0.749-0.973-1.522-1.625-1.805
	c-0.421-0.183-0.889-0.282-1.349-0.28c-0.641,0.004-1.151,0.429-1.722,0.488c-0.299,0.031-0.659-0.553-0.99-0.789
	c-0.338-0.241-0.714-0.42-1.116-0.523c-1.005-0.259-2.099-0.035-2.92,0.598c-0.31,0.239-0.577,0.734-0.878,0.705
	c-0.439-0.044-0.9-0.413-1.388-0.462c-1.033-0.105-2.078,0.282-2.795,1.033c-0.31,0.325-0.557,0.714-0.717,1.134
	c-0.033,0.085-0.122,0.505-0.154,0.529c-0.071,0.052-0.649-0.062-0.78-0.057c-0.936,0.037-1.827,0.468-2.437,1.179
	c-0.285,0.332-0.506,0.721-0.644,1.136c-0.156,0.468-0.054,0.941-0.157,1.397c-0.1,0.442,0.216,0.063-0.223,0.382
	c-0.16,0.117-0.445,0.161-0.63,0.258c-0.437,0.231-0.821,0.553-1.12,0.947c-0.585,0.77-0.816,1.777-0.625,2.726
	c0.043,0.213,0.109,0.427,0.191,0.627c0.195,0.476,0.312,0.353,0.085,0.731c-0.222,0.37-0.645,0.628-0.865,1.034
	c-0.45,0.829-0.531,1.836-0.222,2.727c0.149,0.429,0.387,0.829,0.692,1.166c0.101,0.112,0.325,0.256,0.394,0.371
	c0.278,0.093,0.296,0.239,0.054,0.438c-0.046,0.098-0.092,0.195-0.138,0.293c-0.458,1.104-0.289,2.402,0.434,3.352
	c0.271,0.356,0.613,0.659,1.001,0.884c0.218,0.126,0.555,0.18,0.75,0.321c0.09,0.022,0.179,0.044,0.269,0.067
	c-0.041,0.211-0.061,0.425-0.062,0.64c-0.004,2.237,2.218,3.882,4.359,3.253c0.134,0.596,0.171,1.349,0.426,1.898
	c0.089,0.191,0.022,0.222,0.155,0.309c0.178,0.116,0.825,0,1.036,0c0.638,0,0.931,0.16,1.249-0.297
	c0.384-0.553,0.388-1.541,0.858-2.013c0.267-0.268,0.48-0.055,0.923,0.059c0.752,0.192,1.521,0.314,2.296,0.361
	c0.789,0.048,1.583,0.017,2.367-0.089c0.354-0.048,0.705-0.111,1.053-0.189c0.207-0.047,1.022-0.405,1.188-0.33
	c0.281,0.128,0.593,1.392,0.719,1.687c0.248,0.581,0.169,0.745,0.737,0.811c0.386,0.045,1.633,0.159,1.871-0.084
	c0.337-0.344,0.365-1.624,0.477-2.123c1.263,0.372,2.653-0.029,3.518-1.021c0.29-0.332,0.524-1.177,0.791-1.364
	c0.179-0.125,0.808-0.064,1.029-0.113c0.435-0.097,0.856-0.257,1.247-0.473c0.319,0.958,0.637,1.915,0.956,2.873
	c0.159,0.477,0.422,2.063,0.844,2.305c0.359,0.206,2.253,0.109,2.461-0.149c0.243-0.301,0.321-1.063,0.429-1.422
	c0.204-0.676,0.408-1.352,0.612-2.029c0.069-0.229,0.162-1.016,0.357-1.185c0.118-0.102,0.893,0.154,1.088,0.189
	c0.734,0.13,1.477,0.212,2.222,0.245c1.239,0.055,2.484-0.026,3.705-0.241c0.9-0.159,0.992-0.466,1.231,0.327
	c0.367,1.216,0.733,2.432,1.1,3.648c0.067,0.223,0.093,0.519,0.263,0.616c0.337,0.194,1.433,0,1.827,0
	c0.515,0,0.468,0.078,0.685-0.288c0.289-0.488,0.408-1.224,0.586-1.76c0.35-1.052,0.7-2.103,1.051-3.155
	c1.907,1.077,4.367,0.669,5.826-0.958c0.616-0.687,1.019-1.549,1.152-2.462c0.042-0.291-0.156-1.401-0.036-1.572
	c0.115-0.163,1.161-0.396,1.38-0.52c1.75-0.999,2.693-3.051,2.294-5.031c-0.099-0.49-0.442-0.942-0.53-1.407
	c-0.234-0.191-0.209-0.331,0.073-0.419c0.073-0.06,0.146-0.119,0.219-0.179c0.212-0.184,0.41-0.39,0.586-0.609
	C60.928,23.807,61.296,22.756,61.296,21.689"/>
</svg>
