<?xml version="1.0" encoding="utf-8"?>
<!-- Generator: Adobe Illustrator 16.0.3, SVG Export Plug-In . SVG Version: 6.00 Build 0)  -->
<!DOCTYPE svg PUBLIC "-//W3C//DTD SVG 1.1//EN" "http://www.w3.org/Graphics/SVG/1.1/DTD/svg11.dtd">
<svg version="1.1" id="Layer_1" xmlns="http://www.w3.org/2000/svg" xmlns:xlink="http://www.w3.org/1999/xlink" x="0px" y="0px"
	 width="83px" height="135px" viewBox="87.5 62.891 83 135" enable-background="new 87.5 62.891 83 135" xml:space="preserve">
<path fill="#022169" d="M128.907,90.553c7.587,0,13.74,6.15,13.74,13.74c0,7.592-6.153,13.74-13.74,13.74
	c-7.592,0-13.743-6.148-13.743-13.74C115.164,96.704,121.315,90.553,128.907,90.553z"/>
<path fill="#FFFFFF" d="M134.393,111.092c-0.178,0.042-0.39,0.066-0.643,0.073c-2.904,0.065-5.813-1.978-6.913-4.859
	c-1.021-2.683-0.13-6.206,2.033-8.026c0.375-0.314,0.648-0.483,0.87-0.533c0.353-0.08,0.648,0.124,1.276,0.881
	c2.145,2.8,3.961,7.466,4.217,10.85C135.326,110.649,134.995,110.957,134.393,111.092L134.393,111.092z"/>
<path fill="#022169" d="M135.147,109.497c-0.249,0.056-0.887,0.173-1.589,0.09c-0.255-0.031-0.437-0.262-0.405-0.518
	c0.03-0.254,0.261-0.437,0.519-0.402c0.691,0.085,1.332-0.089,1.334-0.092c0.242-0.07,0.502,0.077,0.572,0.326
	c0.069,0.246-0.073,0.501-0.321,0.571C135.248,109.472,135.213,109.479,135.147,109.497z"/>
<circle fill="#022169" cx="129.74" cy="106.88" r="0.739"/>
<polygon fill="#022169" points="120.837,120.134 119.44,113.907 124.875,116.576 123.358,120.134 "/>
<polygon fill="#022169" points="136.971,120.134 138.371,113.907 132.937,116.576 134.45,120.134 "/>
<circle fill="#022169" cx="128.737" cy="91.305" r="3.813"/>
<circle fill="#022169" cx="123.486" cy="92.35" r="3.813"/>
<circle fill="#022169" cx="119.244" cy="95.326" r="3.813"/>
<circle fill="#022169" cx="116.27" cy="99.782" r="3.814"/>
<circle fill="#022169" cx="115.175" cy="104.293" r="3.813"/>
<path fill="#022169" d="M116.221,105.734c2.106,0,3.813,1.706,3.813,3.814c0,2.103-1.706,3.813-3.813,3.813
	c-2.105,0-3.813-1.711-3.813-3.813C112.407,107.44,114.115,105.734,116.221,105.734z"/>
<circle fill="#022169" cx="119.195" cy="114.001" r="3.813"/>
<circle fill="#022169" cx="138.691" cy="95.326" r="3.813"/>
<path fill="#022169" d="M141.67,95.967c2.105,0,3.811,1.709,3.811,3.814c0,2.107-1.705,3.814-3.811,3.814
	c-2.108,0-3.813-1.707-3.813-3.814C137.856,97.676,139.562,95.967,141.67,95.967z"/>
<path fill="#022169" d="M142.661,100.481c2.108,0,3.815,1.707,3.815,3.813s-1.707,3.813-3.815,3.813
	c-2.104,0-3.813-1.707-3.813-3.813S140.558,100.481,142.661,100.481z"/>
<path fill="#022169" d="M141.618,105.734c2.105,0,3.813,1.706,3.813,3.814c0,2.103-1.707,3.813-3.813,3.813
	c-2.103,0-3.813-1.711-3.813-3.813C137.805,107.44,139.516,105.734,141.618,105.734z"/>
<circle fill="#022169" cx="138.643" cy="114.001" r="3.813"/>
<circle fill="#022169" cx="133.992" cy="92.35" r="3.813"/>
<circle fill="#022169" cx="138.663" cy="95.326" r="3.813"/>
<path fill="#022169" d="M138.613,110.188c2.104,0,3.812,1.708,3.812,3.814c0,2.105-1.708,3.813-3.812,3.813
	c-2.108,0-3.813-1.707-3.813-3.813C134.8,111.896,136.505,110.188,138.613,110.188z"/>
<path fill="#FFFFFF" d="M126.7,99.334c-0.042,0.068-0.096,0.141-0.17,0.221c-0.854,0.933-2.364,1.226-3.594,0.705
	c-1.146-0.484-1.979-1.822-1.9-3.043c0.016-0.214,0.044-0.351,0.096-0.438c0.081-0.129,0.231-0.16,0.658-0.129
	c1.52,0.169,3.522,1,4.658,1.934C126.842,98.909,126.836,99.102,126.7,99.334L126.7,99.334z"/>
<path fill="#1C3664" d="M128.74,69.653c-19.104,0-34.592,15.486-34.592,34.59c0,19.102,28.826,57.647,34.592,57.647
	c5.765,0,34.586-38.546,34.586-57.647S147.842,69.653,128.74,69.653z M128.74,127.303c-12.723,0-23.061-10.35-23.061-23.061
	c0-12.715,10.341-23.061,23.061-23.061c12.717,0,23.059,10.346,23.059,23.061C151.799,116.954,141.457,127.303,128.74,127.303z"/>
<g>
	<path fill="#022169" d="M105.709,176.642h-0.064c-0.637,0-1.018-0.115-1.238-0.375l-2.552-3.021v2.579
		c0,0.191-0.079,0.816-1.115,0.816c-1.1,0-1.18-0.625-1.18-0.816v-11.685c0-0.191,0.08-0.82,1.114-0.82
		c1.102,0,1.181,0.629,1.181,0.82v6.176l2.401-2.865c0.209-0.269,0.6-0.396,1.224-0.396c0.964,0,1.098,0.419,1.098,0.67
		c0,0.215-0.095,0.431-0.282,0.637l-2.801,3.314l3.139,3.72c0.105,0.115,0.256,0.313,0.256,0.56
		C106.891,176.413,106.494,176.642,105.709,176.642z"/>
	<path fill="#022169" d="M125.291,176.642h-0.065c-0.638,0-1.019-0.115-1.237-0.375l-2.553-3.021v2.579
		c0,0.191-0.079,0.816-1.114,0.816c-1.101,0-1.182-0.625-1.182-0.816v-11.685c0-0.191,0.081-0.82,1.114-0.82
		c1.103,0,1.182,0.629,1.182,0.82v6.176l2.402-2.864c0.21-0.267,0.599-0.395,1.222-0.395c0.964,0,1.1,0.419,1.1,0.669
		c0,0.217-0.096,0.43-0.285,0.641l-2.799,3.312l3.139,3.718c0.104,0.115,0.259,0.313,0.259,0.56
		C126.473,176.413,126.076,176.642,125.291,176.642z"/>
	<path fill="#022169" d="M141.517,176.71c-0.652,0-1.242-0.202-1.753-0.598c-0.549-0.424-0.828-1.142-0.828-2.132v-4.791h-0.365
		c-0.381,0-0.786-0.252-0.786-0.951v-0.197c0-0.701,0.406-0.951,0.786-0.951h0.415l0.151-1.32c0.014-0.175,0.137-0.771,0.982-0.771
		h0.164c0.699,0,0.95,0.445,0.95,0.819v1.271h0.924c0.382,0,0.786,0.25,0.786,0.951v0.197c0,0.699-0.405,0.951-0.786,0.951h-0.924
		v4.658c0,0.763,0.271,0.763,0.432,0.763c0.155,0,0.284-0.013,0.384-0.033c0.21-0.042,0.27-0.051,0.325-0.051
		c0.218,0,0.513,0.109,0.681,0.622c0.082,0.255,0.12,0.449,0.12,0.608C143.174,176.389,142.614,176.71,141.517,176.71z"/>
	<path fill="#022169" d="M112.57,166.992c-1.351,0-2.413,0.44-3.16,1.313c-0.729,0.85-1.098,2.053-1.098,3.58
		c0,1.528,0.369,2.724,1.095,3.552c0.738,0.846,1.806,1.274,3.172,1.274c1.368,0,2.428-0.427,3.147-1.271
		c0.699-0.822,1.054-2.019,1.054-3.555c0-1.533-0.36-2.741-1.069-3.585C114.981,167.432,113.924,166.992,112.57,166.992z
		 M113.947,174.015c-0.294,0.401-0.756,0.596-1.408,0.596c-0.65,0-1.104-0.192-1.391-0.593c-0.313-0.437-0.474-1.169-0.474-2.167
		c0-1.004,0.161-1.73,0.474-2.171c0.287-0.396,0.74-0.59,1.391-0.59c0.649,0,1.111,0.196,1.408,0.604
		c0.323,0.444,0.488,1.172,0.488,2.163C114.436,172.849,114.271,173.579,113.947,174.015z"/>
	<path fill="#022169" d="M132.154,166.992c-1.353,0-2.417,0.44-3.164,1.313c-0.727,0.85-1.095,2.053-1.095,3.58
		c0,1.528,0.368,2.724,1.093,3.552c0.74,0.846,1.809,1.274,3.174,1.274c1.367,0,2.427-0.427,3.146-1.271
		c0.698-0.822,1.054-2.019,1.054-3.555c0-1.533-0.359-2.741-1.068-3.585C134.562,167.432,133.507,166.992,132.154,166.992z
		 M133.529,174.015c-0.294,0.401-0.754,0.596-1.409,0.596c-0.651,0-1.104-0.192-1.39-0.593c-0.314-0.437-0.473-1.169-0.473-2.167
		c0-1.004,0.158-1.73,0.473-2.171c0.286-0.396,0.738-0.59,1.39-0.59c0.65,0,1.111,0.196,1.409,0.604
		c0.321,0.444,0.486,1.172,0.486,2.163C134.015,172.849,133.851,173.579,133.529,174.015z"/>
	<path fill="#022169" d="M151.404,173.92c-0.129,0-0.229,0.045-0.57,0.224c-0.551,0.31-1.168,0.467-1.832,0.467
		c-0.677,0-1.182-0.169-1.496-0.498c-0.258-0.273-0.433-0.686-0.525-1.235h4.687c0.378,0,0.63-0.339,0.712-0.449
		c0.196-0.263,0.289-0.479,0.289-0.686c0-3.926-2.145-4.751-3.946-4.751c-1.329,0-2.378,0.436-3.111,1.295
		c-0.718,0.838-1.082,2.06-1.082,3.63c0,1.576,0.375,2.779,1.112,3.575c0.744,0.809,1.882,1.218,3.377,1.218
		c0.836,0,1.587-0.133,2.236-0.396c0.554-0.224,1.183-0.55,1.183-1.115c0-0.204-0.086-0.43-0.274-0.736
		C152.077,174.329,151.822,173.92,151.404,173.92z M148.773,169.09c0.643,0,1.379,0.204,1.499,1.688h-3.292
		C147.235,169.277,148.109,169.09,148.773,169.09z"/>
	<path fill="#022169" d="M157.245,176.71c-0.65,0-1.239-0.202-1.752-0.598c-0.548-0.425-0.826-1.144-0.826-2.132v-9.84
		c0-0.191,0.08-0.82,1.116-0.82c1.1,0,1.178,0.629,1.178,0.82v9.707c0,0.763,0.271,0.763,0.434,0.763
		c0.151,0,0.285-0.013,0.382-0.033c0.211-0.042,0.269-0.051,0.325-0.051c0.219,0,0.516,0.109,0.681,0.622
		c0.082,0.248,0.122,0.447,0.122,0.608C158.904,176.389,158.346,176.71,157.245,176.71z"/>
</g>
<g>
	<path fill="#003366" d="M93.771,188.373c0.663,0.407,1.631,0.745,2.649,0.745c1.514,0,2.396-0.797,2.396-1.953
		c0-1.068-0.612-1.684-2.158-2.274c-1.868-0.663-3.023-1.633-3.023-3.246c0-1.783,1.477-3.109,3.703-3.109
		c1.173,0,2.021,0.272,2.531,0.561l-0.405,1.206c-0.376-0.202-1.14-0.544-2.177-0.544c-1.563,0-2.157,0.936-2.157,1.717
		c0,1.071,0.695,1.597,2.276,2.207c1.937,0.749,2.922,1.682,2.922,3.368c0,1.766-1.309,3.295-4.009,3.295
		c-1.104,0-2.311-0.326-2.923-0.732L93.771,188.373z"/>
	<path fill="#003366" d="M109.185,187.93c0,0.85,0.017,1.597,0.069,2.242h-1.327l-0.084-1.342h-0.035
		c-0.392,0.661-1.257,1.529-2.718,1.529c-1.291,0-2.837-0.715-2.837-3.603v-4.81h1.494v4.557c0,1.562,0.477,2.613,1.836,2.613
		c1.002,0,1.698-0.695,1.97-1.357c0.087-0.221,0.137-0.494,0.137-0.764v-5.049h1.495V187.93z"/>
	<path fill="#003366" d="M111.671,184.516c0-0.97-0.017-1.8-0.068-2.568h1.309l0.051,1.615h0.067
		c0.375-1.104,1.275-1.801,2.277-1.801c0.169,0,0.29,0.018,0.425,0.052v1.409c-0.153-0.033-0.305-0.051-0.509-0.051
		c-1.054,0-1.8,0.799-2.005,1.92c-0.033,0.204-0.068,0.441-0.068,0.697v4.383h-1.479V184.516z"/>
	<path fill="#003366" d="M121.698,190.172l-0.119-1.035h-0.052c-0.459,0.646-1.342,1.223-2.515,1.223
		c-1.666,0-2.516-1.172-2.516-2.361c0-1.987,1.768-3.077,4.945-3.06v-0.17c0-0.678-0.188-1.902-1.869-1.902
		c-0.766,0-1.562,0.237-2.141,0.611l-0.339-0.986c0.678-0.44,1.665-0.729,2.7-0.729c2.514,0,3.127,1.716,3.127,3.362v3.077
		c0,0.713,0.035,1.41,0.138,1.971H121.698z M121.478,185.978c-1.632-0.035-3.484,0.252-3.484,1.851c0,0.971,0.646,1.426,1.411,1.426
		c1.069,0,1.75-0.682,1.989-1.375c0.049-0.154,0.084-0.323,0.084-0.478V185.978z"/>
	<path fill="#003366" d="M125.798,181.948l1.087,4.181c0.236,0.921,0.461,1.77,0.61,2.616h0.05c0.188-0.833,0.463-1.717,0.73-2.598
		l1.344-4.199h1.26l1.274,4.114c0.305,0.987,0.541,1.85,0.727,2.683h0.053c0.138-0.833,0.358-1.695,0.629-2.666l1.172-4.131h1.48
		l-2.652,8.225h-1.36l-1.258-3.924c-0.286-0.917-0.524-1.732-0.73-2.702h-0.031c-0.203,0.987-0.461,1.837-0.748,2.72l-1.328,3.906
		h-1.355l-2.481-8.225H125.798z"/>
	<path fill="#003366" d="M144.985,185.993c0,3.04-2.106,4.367-4.095,4.367c-2.226,0-3.938-1.631-3.938-4.231
		c0-2.753,1.797-4.366,4.075-4.366C143.389,181.762,144.985,183.478,144.985,185.993z M138.461,186.079c0,1.801,1.037,3.16,2.5,3.16
		c1.426,0,2.496-1.341,2.496-3.195c0-1.393-0.699-3.16-2.464-3.16C139.227,182.883,138.461,184.516,138.461,186.079z"/>
	<path fill="#003366" d="M146.879,184.175c0-0.853-0.02-1.546-0.07-2.228h1.329l0.081,1.36h0.037
		c0.403-0.78,1.358-1.546,2.717-1.546c1.137,0,2.906,0.681,2.906,3.501v4.909h-1.498v-4.741c0-1.324-0.491-2.429-1.9-2.429
		c-0.984,0-1.749,0.698-2.008,1.531c-0.065,0.186-0.098,0.441-0.098,0.694v4.944h-1.496V184.175z"/>
	<path fill="#003366" d="M163.396,181.948c-0.033,0.598-0.066,1.258-0.066,2.262v4.773c0,1.887-0.377,3.041-1.177,3.756
		c-0.8,0.747-1.95,0.984-2.989,0.984c-0.985,0-2.072-0.237-2.732-0.678l0.373-1.14c0.543,0.341,1.391,0.644,2.414,0.644
		c1.526,0,2.647-0.796,2.647-2.869v-0.919h-0.034c-0.457,0.766-1.34,1.378-2.613,1.378c-2.043,0-3.502-1.735-3.502-4.011
		c0-2.784,1.818-4.366,3.705-4.366c1.426,0,2.204,0.748,2.563,1.428h0.038l0.065-1.242H163.396z M161.85,185.196
		c0-0.257-0.018-0.477-0.086-0.68c-0.27-0.869-1-1.582-2.088-1.582c-1.43,0-2.446,1.207-2.446,3.109
		c0,1.613,0.817,2.957,2.429,2.957c0.918,0,1.75-0.578,2.071-1.53c0.086-0.255,0.12-0.543,0.12-0.8V185.196z"/>
</g>
</svg>
